<svg xmlns="http://www.w3.org/2000/svg" viewBox="0 0 400 300" width="400" height="300">
  <defs>
    <linearGradient id="waterSky" x1="0" y1="0" x2="0" y2="1">
      <stop offset="0%" stop-color="#a8c4b8"/>
      <stop offset="100%" stop-color="#7aacb8"/>
    </linearGradient>
    <linearGradient id="water" x1="0" y1="0" x2="0" y2="1">
      <stop offset="0%" stop-color="#4a7a8a"/>
      <stop offset="100%" stop-color="#2d5a6e"/>
    </linearGradient>
  </defs>

  <!-- Sky -->
  <rect width="400" height="300" fill="url(#waterSky)"/>

  <!-- Clouds -->
  <ellipse cx="80" cy="45" rx="35" ry="14" fill="white" opacity="0.7"/>
  <ellipse cx="100" cy="38" rx="25" ry="16" fill="white" opacity="0.7"/>
  <ellipse cx="60" cy="40" rx="20" ry="12" fill="white" opacity="0.6"/>

  <ellipse cx="290" cy="55" rx="30" ry="12" fill="white" opacity="0.5"/>
  <ellipse cx="308" cy="48" rx="22" ry="14" fill="white" opacity="0.5"/>

  <!-- Sun / morning light -->
  <circle cx="340" cy="60" r="22" fill="#e8c870" opacity="0.9"/>
  <circle cx="340" cy="60" r="16" fill="#f0d870" opacity="0.8"/>

  <!-- Skyline reflection area -->
  <!-- Buildings silhouette -->
  <rect x="80" y="130" width="16" height="65" fill="#1a3040" opacity="0.85"/>
  <rect x="98" y="118" width="12" height="77" fill="#1a3040" opacity="0.9"/>
  <rect x="98" y="110" width="6" height="12" fill="#1a3040" opacity="0.9"/>
  <rect x="112" y="125" width="14" height="70" fill="#2d4a5e" opacity="0.8"/>
  <rect x="128" y="135" width="10" height="60" fill="#1a3040" opacity="0.85"/>
  <rect x="140" y="122" width="16" height="73" fill="#2d4a5e" opacity="0.8"/>
  <rect x="158" y="130" width="12" height="65" fill="#1a3040" opacity="0.85"/>
  <rect x="172" y="118" width="10" height="77" fill="#2d4a5e" opacity="0.85"/>
  <rect x="184" y="128" width="14" height="67" fill="#1a3040" opacity="0.8"/>
  <rect x="200" y="135" width="10" height="60" fill="#2d4a5e" opacity="0.75"/>
  <rect x="212" y="125" width="12" height="70" fill="#1a3040" opacity="0.8"/>
  <rect x="226" y="132" width="10" height="63" fill="#2d4a5e" opacity="0.75"/>
  <!-- Willis-like tower -->
  <rect x="240" y="100" width="20" height="95" fill="#1a3040" opacity="0.9"/>
  <rect x="244" y="88" width="12" height="16" fill="#1a3040" opacity="0.9"/>
  <rect x="247" y="76" width="6" height="16" fill="#1a3040" opacity="0.9"/>
  <rect x="249" y="60" width="2" height="18" fill="#1a3040" opacity="0.85"/>

  <!-- Building windows glimmer -->
  <rect x="87" y="140" width="2" height="2" fill="#a8c4b8" opacity="0.5"/>
  <rect x="91" y="140" width="2" height="2" fill="#a8c4b8" opacity="0.4"/>
  <rect x="103" y="128" width="2" height="2" fill="#e8c870" opacity="0.5"/>
  <rect x="107" y="128" width="2" height="2" fill="#e8c870" opacity="0.3"/>
  <rect x="148" y="132" width="2" height="2" fill="#a8c4b8" opacity="0.4"/>
  <rect x="248" y="110" width="2" height="2" fill="#e8c870" opacity="0.5"/>
  <rect x="252" y="110" width="2" height="2" fill="#e8c870" opacity="0.4"/>
  <rect x="248" y="118" width="2" height="2" fill="#e8c870" opacity="0.3"/>

  <!-- Water surface -->
  <rect x="0" y="195" width="400" height="105" fill="url(#water)"/>

  <!-- Water shimmer / sun reflection -->
  <ellipse cx="340" cy="210" rx="45" ry="6" fill="#e8c870" opacity="0.25"/>
  <ellipse cx="340" cy="220" rx="30" ry="4" fill="#e8c870" opacity="0.15"/>
  <ellipse cx="340" cy="228" rx="18" ry="3" fill="#e8c870" opacity="0.1"/>

  <!-- Skyline reflection in water (flipped, blurry) -->
  <rect x="80" y="196" width="16" height="30" fill="#1a3040" opacity="0.25"/>
  <rect x="98" y="196" width="12" height="38" fill="#1a3040" opacity="0.2"/>
  <rect x="240" y="196" width="20" height="45" fill="#1a3040" opacity="0.22"/>
  <rect x="112" y="196" width="14" height="28" fill="#1a3040" opacity="0.2"/>
  <rect x="172" y="196" width="10" height="35" fill="#1a3040" opacity="0.18"/>

  <!-- Wave lines -->
  <path d="M0,205 Q50,200 100,205 Q150,210 200,205 Q250,200 300,205 Q350,210 400,205" stroke="#6a9aaa" stroke-width="1.5" fill="none" opacity="0.5"/>
  <path d="M0,215 Q60,210 120,215 Q180,220 240,215 Q300,210 360,215 Q380,217 400,215" stroke="#5a8a9a" stroke-width="1.5" fill="none" opacity="0.4"/>
  <path d="M0,228 Q70,223 140,228 Q210,233 280,228 Q340,224 400,228" stroke="#4a7a8a" stroke-width="1.5" fill="none" opacity="0.4"/>
  <path d="M0,242 Q80,237 160,242 Q240,247 320,242 Q360,239 400,242" stroke="#3d6a7a" stroke-width="1" fill="none" opacity="0.35"/>

  <!-- Kayak -->
  <!-- Hull -->
  <ellipse cx="190" cy="208" rx="55" ry="9" fill="#c4793a"/>
  <ellipse cx="190" cy="207" rx="52" ry="7" fill="#d4893a"/>
  <!-- Cockpit -->
  <ellipse cx="190" cy="206" rx="18" ry="5" fill="#2d4a3e"/>
  <ellipse cx="190" cy="205" rx="15" ry="4" fill="#3d5a4e"/>
  <!-- Bow detail -->
  <path d="M135,208 Q145,204 155,207" stroke="#a86828" stroke-width="1.5" fill="none"/>
  <path d="M225,207 Q235,204 245,208" stroke="#a86828" stroke-width="1.5" fill="none"/>

  <!-- Paddler -->
  <!-- Body -->
  <ellipse cx="190" cy="200" rx="8" ry="10" fill="#2d4a3e"/>
  <!-- Head -->
  <circle cx="190" cy="190" r="7" fill="#c4a080"/>
  <!-- Hat -->
  <ellipse cx="190" cy="185" rx="9" ry="3" fill="#c4793a"/>
  <rect x="186" y="181" width="8" height="6" fill="#c4793a"/>
  <!-- Paddle left -->
  <line x1="190" y1="198" x2="148" y2="212" stroke="#5c4a32" stroke-width="3" stroke-linecap="round"/>
  <ellipse cx="145" cy="213" rx="8" ry="3" fill="#7a6040" transform="rotate(-20,145,213)"/>
  <!-- Paddle right -->
  <line x1="190" y1="198" x2="232" y2="212" stroke="#5c4a32" stroke-width="3" stroke-linecap="round"/>
  <ellipse cx="235" cy="213" rx="8" ry="3" fill="#7a6040" transform="rotate(20,235,213)"/>

  <!-- Ripples around kayak -->
  <ellipse cx="190" cy="215" rx="65" ry="6" fill="none" stroke="#6a9aaa" stroke-width="1" opacity="0.5"/>
  <ellipse cx="190" cy="220" rx="80" ry="7" fill="none" stroke="#5a8a9a" stroke-width="0.8" opacity="0.3"/>

  <!-- Bird silhouettes -->
  <path d="M50,80 Q55,76 60,80" stroke="#1a3040" stroke-width="1.5" fill="none" opacity="0.6"/>
  <path d="M62,75 Q67,71 72,75" stroke="#1a3040" stroke-width="1.5" fill="none" opacity="0.5"/>
  <path d="M20,95 Q25,91 30,95" stroke="#1a3040" stroke-width="1.5" fill="none" opacity="0.4"/>
</svg>
